<svg id="Capa_1" enable-background="new 0 0 512 512" height="512" viewBox="0 0 512 512" width="512" xmlns="http://www.w3.org/2000/svg"><g><g><g clip-rule="evenodd" fill-rule="evenodd"><path d="m504.5 120.691h-30v285.618h-437v-285.618h-30v315.617h226.021v15h44.958v-15h226.021z" fill="#ffcf7b"/><path d="m7.5 120.691h30v315.617h-30z" fill="#ffaf02"/><path d="m444.5 90.692h30v315.617h-218.5l-30-30h-158.501v-285.617h-29.999v315.617h218.5l30-30h158.5z" fill="#c4e5f9"/><path d="m67.499 90.692h-30v315.617h30zm188.501 315.617 30-30h30l-30 30z" fill="#a4d7f5"/><path d="m444.5 60.692v315.617h-158.5l-30 30-30-30h-158.501v-315.617h158.501l30 30 30-30z" fill="#e0dfde"/><path d="m67.499 60.692v315.617h30v-315.617zm140.501 308.246 30 30 15-15-15-15z" fill="#bfbec1"/><path d="m334.79 60.692v80.531h-14.77v30h-29.77v-110.531z" fill="#cae4ba"/><path d="m334.79 60.692v80.531h-14.77v30h-29.77v-110.531z" fill="#f492a7"/></g><g><path d="m422.001 353.809h-44.86v-15h44.86zm-59.86 0h-14.535v-15h14.535zm-227.142-255.85h-15v-14.535h15zm-30 0h-15v-14.535h15z" fill="#fff"/></g></g><g><path d="m497 113.191v315.617h-74.999v15h89.999v-330.617z"/><path d="m270.979 443.808h-29.958v-15h-226.021v-315.617h-15v330.617h226.021v15h59.958v-15h121.022v-15h-136.022z"/><path d="m94.25 398.809h-49.25v-315.617h-15v330.617h64.25z"/><path d="m482 413.809v-330.617h-15v315.617h-192.894l15-15h162.895v-330.617h-109.711-59.396-.144v.144l-26.75 26.749-26.894-26.894h-169.106v330.617h162.894l15 15h-128.644v15m218.04-345.616v65.531h-14.77v30h-14.77v-95.531zm.231 110.531v-30h14.77v-80.531h94.711v300.617h-154.108l-19.394 19.393v-294.403l19.25-19.25v104.174zm-252.521-110.531h147.894l25.606 25.606v294.404l-18.5-19.264-155-.128z"/><path d="m357.29 133.723h60.46v15h-60.46z"/><path d="m372.75 163.723h45v15h-45z"/><path d="m282.75 193.723h135v15h-135z"/><path d="m357.75 283.722h60v15h-60z"/><path d="m282.75 223.723h30.001v15h-30.001z"/><path d="m342.52 163.723h15.23v15h-15.23z"/><path d="m282.75 253.723h135v15h-135z"/><path d="m327.751 223.723h89.999v15h-89.999z"/><path d="m282.75 283.722h60v15h-60z"/><path d="m154.25 253.723h75v15h-75z"/><path d="m94.25 223.723h135v15h-135z"/><path d="m94.25 193.723h75v15h-75z"/><path d="m94.25 253.723h45v15h-45z"/><path d="m94.25 283.722h135v15h-135z"/><path d="m94.25 133.723h30v15h-30z"/><path d="m139.25 133.723h90v15h-90z"/><path d="m94.25 163.723h135v15h-135z"/><path d="m184.25 193.723h45v15h-45z"/></g></g></svg>