<svg height="512pt" viewBox="-81 0 512 512" width="512pt" xmlns="http://www.w3.org/2000/svg"><path d="m334.664062 66.078125h-85.671874c-1.90625-16.773437-9.386719-32.28125-21.53125-44.363281-14.09375-14.011719-32.765626-21.714844-52.617188-21.714844-.144531 0-.285156 0-.429688 0-38.023437.214844-69.464843 29.136719-73.734374 66.078125h-85.679688c-8.285156 0-15 6.714844-15 15v415.921875c0 8.285156 6.714844 15 15 15h319.664062c8.28125 0 15-6.714844 15-15v-415.921875c0-8.285156-6.714843-15-15-15zm-254.957031 30h35.476563c8.285156 0 15-6.71875 15-15v-6.398437c0-24.5 19.917968-44.542969 44.398437-44.679688h.257813c11.871094 0 23.035156 4.605469 31.464844 12.988281 8.496093 8.449219 13.175781 19.703125 13.175781 31.691407v6.394531c0 8.285156 6.714843 15 15 15h35.476562v29.460937h-190.25zm239.957031 385.921875h-289.664062v-385.921875h19.707031v36.847656c0 12.46875 10.140625 22.609375 22.605469 22.609375h205.039062c12.464844 0 22.605469-10.144531 22.605469-22.609375v-36.847656h19.703125v385.921875zm0 0"/><path d="m189.742188 74.726562c0-8.238281-6.675782-14.917968-14.910157-14.917968s-14.910156 6.679687-14.910156 14.917968c0 8.242188 6.675781 14.921876 14.910156 14.921876s14.910157-6.679688 14.910157-14.921876zm0 0"/><path d="m275.015625 185.214844h-200.367187c-8.285157 0-15 6.714844-15 15 0 8.28125 6.714843 15 15 15h200.367187c8.285156 0 15-6.71875 15-15 0-8.285156-6.714844-15-15-15zm0 0"/><path d="m275.015625 244.890625h-200.367187c-8.285157 0-15 6.714844-15 15s6.714843 15 15 15h200.367187c8.285156 0 15-6.714844 15-15s-6.714844-15-15-15zm0 0"/><path d="m275.015625 304.570312h-200.367187c-8.285157 0-15 6.714844-15 15 0 8.28125 6.714843 15 15 15h200.367187c8.285156 0 15-6.71875 15-15 0-8.285156-6.714844-15-15-15zm0 0"/><path d="m275.015625 364.246094h-200.367187c-8.285157 0-15 6.71875-15 15 0 8.285156 6.714843 15 15 15h200.367187c8.285156 0 15-6.714844 15-15 0-8.28125-6.714844-15-15-15zm0 0"/></svg>